HIERARCHY
ROOT Hips
{
  OFFSET -99.1329 94.8849 -31.3034
  CHANNELS 6 Xposition Yposition Zposition Zrotation Xrotation Yrotation
  JOINT Spine
  {
    OFFSET 0 7.29544 0
    CHANNELS 6 Xposition Yposition Zposition Zrotation Xrotation Yrotation
    JOINT Spine1
    {
      OFFSET 0 7.29544 0
      CHANNELS 6 Xposition Yposition Zposition Zrotation Xrotation Yrotation
      JOINT Spine2
      {
        OFFSET 0 7.29544 0
        CHANNELS 6 Xposition Yposition Zposition Zrotation Xrotation Yrotation
        JOINT Spine3
        {
          OFFSET 0 7.29544 0
          CHANNELS 6 Xposition Yposition Zposition Zrotation Xrotation Yrotation
          JOINT Neck
          {
            OFFSET 0 15.5028 0
            CHANNELS 6 Xposition Yposition Zposition Zrotation Xrotation Yrotation
            JOINT Head
            {
              OFFSET 0 9.84884 0
              CHANNELS 6 Xposition Yposition Zposition Zrotation Xrotation Yrotation
              End Site
              {
                OFFSET 0 18.4666 0
              }
            }
          }
          JOINT LeftShoulder
          {
            OFFSET 5 17 0
            CHANNELS 6 Xposition Yposition Zposition Zrotation Xrotation Yrotation
            JOINT LeftShoulder2
            {
              OFFSET 6.75 0 0
              CHANNELS 6 Xposition Yposition Zposition Zrotation Xrotation Yrotation
              JOINT LeftArm
              {
                OFFSET 6.75 0 0
                CHANNELS 6 Xposition Yposition Zposition Zrotation Xrotation Yrotation
                JOINT LeftForeArm
                {
                  OFFSET 0 -31.2558 -2
                  CHANNELS 6 Xposition Yposition Zposition Zrotation Xrotation Yrotation
                  JOINT LeftHand
                  {
                    OFFSET 0 -24.7442 2
                    CHANNELS 6 Xposition Yposition Zposition Zrotation Xrotation Yrotation
                    JOINT LeftHandThumb1
                    {
                      OFFSET -0.5 -1.5 2.65
                      CHANNELS 6 Xposition Yposition Zposition Zrotation Xrotation Yrotation
                      JOINT LeftHandThumb2
                      {
                        OFFSET 0 -3.8 3.7
                        CHANNELS 6 Xposition Yposition Zposition Zrotation Xrotation Yrotation
                        JOINT LeftHandThumb3
                        {
                          OFFSET 0 -3 2.7
                          CHANNELS 6 Xposition Yposition Zposition Zrotation Xrotation Yrotation
                          End Site
                          {
                            OFFSET 0 -2.3 1.8
                          }
                        }
                      }
                    }
                    JOINT LeftHandIndex
                    {
                      OFFSET 0 -1.9 1.6
                      CHANNELS 6 Xposition Yposition Zposition Zrotation Xrotation Yrotation
                      JOINT LeftHandIndex1
                      {
                        OFFSET 0 -8.3 1.9
                        CHANNELS 6 Xposition Yposition Zposition Zrotation Xrotation Yrotation
                        JOINT LeftHandIndex2
                        {
                          OFFSET 0 -4.5 0
                          CHANNELS 6 Xposition Yposition Zposition Zrotation Xrotation Yrotation
                          JOINT LeftHandIndex3
                          {
                            OFFSET 0 -3.4 0
                            CHANNELS 6 Xposition Yposition Zposition Zrotation Xrotation Yrotation
                            End Site
                            {
                              OFFSET 0 -2.6 0
                            }
                          }
                        }
                      }
                    }
                    JOINT LeftHandMiddle
                    {
                      OFFSET -0.25 -2.2 0.4
                      CHANNELS 6 Xposition Yposition Zposition Zrotation Xrotation Yrotation
                      JOINT LeftHandMiddle1
                      {
                        OFFSET 0 -8.3 1
                        CHANNELS 6 Xposition Yposition Zposition Zrotation Xrotation Yrotation
                        JOINT LeftHandMiddle2
                        {
                          OFFSET 0 -4.65 0
                          CHANNELS 6 Xposition Yposition Zposition Zrotation Xrotation Yrotation
                          JOINT LeftHandMiddle3
                          {
                            OFFSET 0 -3.3 0
                            CHANNELS 6 Xposition Yposition Zposition Zrotation Xrotation Yrotation
                            End Site
                            {
                              OFFSET 0 -2.7 0
                            }
                          }
                        }
                      }
                    }
                    JOINT LeftHandRing
                    {
                      OFFSET -0.5 -2.15 -0.8
                      CHANNELS 6 Xposition Yposition Zposition Zrotation Xrotation Yrotation
                      JOINT LeftHandRing1
                      {
                        OFFSET 0 -7.75 -0.2
                        CHANNELS 6 Xposition Yposition Zposition Zrotation Xrotation Yrotation
                        JOINT LeftHandRing2
                        {
                          OFFSET 0 -3.8 0
                          CHANNELS 6 Xposition Yposition Zposition Zrotation Xrotation Yrotation
                          JOINT LeftHandRing3
                          {
                            OFFSET 0 -3.4 0
                            CHANNELS 6 Xposition Yposition Zposition Zrotation Xrotation Yrotation
                            End Site
                            {
                              OFFSET 0 -2.6 0
                            }
                          }
                        }
                      }
                    }
                    JOINT LeftHandPinky
                    {
                      OFFSET -0.75 -1.75 -1.85
                      CHANNELS 6 Xposition Yposition Zposition Zrotation Xrotation Yrotation
                      JOINT LeftHandPinky1
                      {
                        OFFSET 0 -7.15 -1
                        CHANNELS 6 Xposition Yposition Zposition Zrotation Xrotation Yrotation
                        JOINT LeftHandPinky2
                        {
                          OFFSET 0 -3 0
                          CHANNELS 6 Xposition Yposition Zposition Zrotation Xrotation Yrotation
                          JOINT LeftHandPinky3
                          {
                            OFFSET 0 -2.35 0
                            CHANNELS 6 Xposition Yposition Zposition Zrotation Xrotation Yrotation
                            End Site
                            {
                              OFFSET 0 -2.1 0
                            }
                          }
                        }
                      }
                    }
                  }
                }
              }
            }
          }
          JOINT RightShoulder
          {
            OFFSET -5 17 0
            CHANNELS 6 Xposition Yposition Zposition Zrotation Xrotation Yrotation
            JOINT RightShoulder2
            {
              OFFSET -6.75 0 0
              CHANNELS 6 Xposition Yposition Zposition Zrotation Xrotation Yrotation
              JOINT RightArm
              {
                OFFSET -6.75 0 0
                CHANNELS 6 Xposition Yposition Zposition Zrotation Xrotation Yrotation
                JOINT RightForeArm
                {
                  OFFSET 0 -31.2558 -2
                  CHANNELS 6 Xposition Yposition Zposition Zrotation Xrotation Yrotation
                  JOINT RightHand
                  {
                    OFFSET 0 -24.7442 2
                    CHANNELS 6 Xposition Yposition Zposition Zrotation Xrotation Yrotation
                    JOINT RightHandThumb1
                    {
                      OFFSET 0.5 -1.5 2.65
                      CHANNELS 6 Xposition Yposition Zposition Zrotation Xrotation Yrotation
                      JOINT RightHandThumb2
                      {
                        OFFSET 0 -3.8 3.7
                        CHANNELS 6 Xposition Yposition Zposition Zrotation Xrotation Yrotation
                        JOINT RightHandThumb3
                        {
                          OFFSET 0 -3 2.7
                          CHANNELS 6 Xposition Yposition Zposition Zrotation Xrotation Yrotation
                          End Site
                          {
                            OFFSET 0 -2.3 1.8
                          }
                        }
                      }
                    }
                    JOINT RightHandIndex
                    {
                      OFFSET 0 -1.9 1.6
                      CHANNELS 6 Xposition Yposition Zposition Zrotation Xrotation Yrotation
                      JOINT RightHandIndex1
                      {
                        OFFSET 0 -8.3 1.9
                        CHANNELS 6 Xposition Yposition Zposition Zrotation Xrotation Yrotation
                        JOINT RightHandIndex2
                        {
                          OFFSET 0 -4.5 0
                          CHANNELS 6 Xposition Yposition Zposition Zrotation Xrotation Yrotation
                          JOINT RightHandIndex3
                          {
                            OFFSET 0 -3.4 0
                            CHANNELS 6 Xposition Yposition Zposition Zrotation Xrotation Yrotation
                            End Site
                            {
                              OFFSET 0 -2.6 0
                            }
                          }
                        }
                      }
                    }
                    JOINT RightHandMiddle
                    {
                      OFFSET 0.25 -2.2 0.4
                      CHANNELS 6 Xposition Yposition Zposition Zrotation Xrotation Yrotation
                      JOINT RightHandMiddle1
                      {
                        OFFSET 0 -8.3 1
                        CHANNELS 6 Xposition Yposition Zposition Zrotation Xrotation Yrotation
                        JOINT RightHandMiddle2
                        {
                          OFFSET 0 -4.65 0
                          CHANNELS 6 Xposition Yposition Zposition Zrotation Xrotation Yrotation
                          JOINT RightHandMiddle3
                          {
                            OFFSET 0 -3.3 0
                            CHANNELS 6 Xposition Yposition Zposition Zrotation Xrotation Yrotation
                            End Site
                            {
                              OFFSET 0 -2.7 0
                            }
                          }
                        }
                      }
                    }
                    JOINT RightHandRing
                    {
                      OFFSET 0.5 -2.15 -0.8
                      CHANNELS 6 Xposition Yposition Zposition Zrotation Xrotation Yrotation
                      JOINT RightHandRing1
                      {
                        OFFSET 0 -7.75 -0.2
                        CHANNELS 6 Xposition Yposition Zposition Zrotation Xrotation Yrotation
                        JOINT RightHandRing2
                        {
                          OFFSET 0 -3.8 0
                          CHANNELS 6 Xposition Yposition Zposition Zrotation Xrotation Yrotation
                          JOINT RightHandRing3
                          {
                            OFFSET 0 -3.4 0
                            CHANNELS 6 Xposition Yposition Zposition Zrotation Xrotation Yrotation
                            End Site
                            {
                              OFFSET 0 -2.6 0
                            }
                          }
                        }
                      }
                    }
                    JOINT RightHandPinky
                    {
                      OFFSET 0.75 -1.75 -1.85
                      CHANNELS 6 Xposition Yposition Zposition Zrotation Xrotation Yrotation
                      JOINT RightHandPinky1
                      {
                        OFFSET 0 -7.15 -1
                        CHANNELS 6 Xposition Yposition Zposition Zrotation Xrotation Yrotation
                        JOINT RightHandPinky2
                        {
                          OFFSET 0 -3 0
                          CHANNELS 6 Xposition Yposition Zposition Zrotation Xrotation Yrotation
                          JOINT RightHandPinky3
                          {
                            OFFSET 0 -2.35 0
                            CHANNELS 6 Xposition Yposition Zposition Zrotation Xrotation Yrotation
                            End Site
                            {
                              OFFSET 0 -2.1 0
                            }
                          }
                        }
                      }
                    }
                  }
                }
              }
            }
          }
        }
      }
    }
  }
  JOINT LeftUpLeg
  {
    OFFSET 14 0 0
    CHANNELS 6 Xposition Yposition Zposition Zrotation Xrotation Yrotation
    JOINT LeftLeg
    {
      OFFSET 0 -45.7849 -1
      CHANNELS 6 Xposition Yposition Zposition Zrotation Xrotation Yrotation
      JOINT LeftFoot
      {
        OFFSET 0 -41.7151 -2
        CHANNELS 6 Xposition Yposition Zposition Zrotation Xrotation Yrotation
        JOINT LeftToeBase
        {
          OFFSET 0 -7.5 12.5
          CHANNELS 6 Xposition Yposition Zposition Zrotation Xrotation Yrotation
          JOINT LeftFootToe
          {
            OFFSET 0 0 4
            CHANNELS 6 Xposition Yposition Zposition Zrotation Xrotation Yrotation
            End Site
            {
              OFFSET 0 0 0
            }
          }
        }
      }
    }
  }
  JOINT RightUpLeg
  {
    OFFSET -14 0 0
    CHANNELS 6 Xposition Yposition Zposition Zrotation Xrotation Yrotation
    JOINT RightLeg
    {
      OFFSET 0 -45.7849 -1
      CHANNELS 6 Xposition Yposition Zposition Zrotation Xrotation Yrotation
      JOINT RightFoot
      {
        OFFSET 0 -41.7151 -2
        CHANNELS 6 Xposition Yposition Zposition Zrotation Xrotation Yrotation
        JOINT RightToeBase
        {
          OFFSET 0 -7.5 12.5
          CHANNELS 6 Xposition Yposition Zposition Zrotation Xrotation Yrotation
          JOINT RightFootToe
          {
            OFFSET 0 0 4
            CHANNELS 6 Xposition Yposition Zposition Zrotation Xrotation Yrotation
            End Site
            {
              OFFSET 0 0 0
            }
          }
        }
      }
    }
  }
}
MOTION
Frames:	4
Frame Time:	0.0111111
0 95 0 0 0 -0 0 7.29544 0 0 0 -0 0 7.29544 0 0 0 -0 0 7.29544 0 0 0 -0 0 7.29544 0 0 0 -0 0 15.5028 0 0 0 -0 0 9.84884 0 0 0 -0 5 17 0 0 0 -0 6.75 0 0 0 0 -0 6.75 0 0 90.0002 0 -0 0 -31.2558 -2 0 0 -0 0 -24.7442 2 0 0 -0 -0.5 -1.5 2.65 0 0 -0 0 -3.8 3.7 0 0 -0 0 -3 2.7 0 0 -0 0 -1.9 1.6 0 0 -0 0 -8.3 1.9 0 0 -0 2.84217e-14 -4.5 0 0 0 -0 0 -3.4 0 0 0 -0 -0.25 -2.2 0.4 0 0 -0 0 -8.3 1 -2.42657e-20 0 -0.00220141 0 -4.65 0 5.6905e-29 -2.41339e-24 -7.76503e-19 0 -3.3 0 2.42657e-20 -7.67205e-25 -7.76503e-19 -0.5 -2.15 -0.8 0 0 -0 0 -7.75 -0.2 0 0 -0 0 -3.8 0 0 0 -0 0 -3.4 0 0 0 -0 -0.75 -1.75 -1.85 0 0 -0 -2.84217e-14 -7.15 -1 0 0 -0 2.84217e-14 -3 0 0 0 -0 -2.84217e-14 -2.35 0 0 0 -0 -5 17 0 0 0 -0 -6.75 0 0 0 0 -0 -6.75 0 0 -90.0002 0 -0 0 -31.2558 -2 0 0 -0 0 -24.7442 2 0 0 -0 0.5 -1.5 2.65 0 0 -0 0 -3.8 3.7 0 0 -0 0 -3 2.7 0 0 -0 0 -1.9 1.6 0 0 -0 0 -8.3 1.9 0 0 -0 -2.84217e-14 -4.5 0 0 0 -0 0 -3.4 0 0 0 -0 0.25 -2.2 0.4 0 0 -0 0 -8.3 1 0 0 -0 0 -4.65 0 0 0 -0 0 -3.3 0 0 0 -0 0.5 -2.15 -0.8 0 0 -0 0 -7.75 -0.2 2.42657e-20 0 0.00144058 -2.84217e-14 -3.8 0 0 1.30423e-25 -0 0 -3.4 0 -1.8619e-29 -2.18839e-25 -0 0.75 -1.75 -1.85 0 0 -0 2.84217e-14 -7.15 -1 0 0 -0 -2.84217e-14 -3 0 0 0 -0 2.84217e-14 -2.35 0 0 0 -0 14 0 0 0 0 -0 0 -45.7849 -1 0 0 -0 0 -41.7151 -2 0 0 -0 0 -7.5 12.5 0 0 -0 0 0 4 0 0.00378702 -0 -14 0 0 0 0 -0 0 -45.7849 -1 0 0 -0 0 -41.7151 -2 0 0 -0 0 -7.5 12.5 0 0 -0 0 0 4 0 0 -0 
-99.197 94.8848 -31.2698 0.0777381 -0.131272 114.287 0 7.29544 -1.42109e-14 -0.0913947 -1.26295 2.41567 0 7.29544 1.42109e-14 0.13427 0.631253 -2.3472 0 7.29544 1.42109e-14 0.0639088 0.31635 -1.17354 0 7.29544 0 0.0638937 0.316279 -1.17327 0 15.5028 2.84217e-14 0.373989 -2.38358 -0.816165 0 9.84884 0 1.21738 -2.03661 -1.92044 5 17 1.42109e-14 1.24593 -1.46951 -3.63414 6.75 2.84217e-14 0 -0.113102 -0.275147 2.02097 6.75 0 0 0.363911 -4.08936 -8.3633 1.42109e-14 -31.2558 -2 6.3407 1.27906 -9.28884 0 -24.7442 2 7.48516 -5.41156 -18.2198 -0.5 -1.5 2.65 5.61941 -1.63557 -2.83728 7.10543e-15 -3.8 3.7 0.068141 4.49461 -0.0106066 7.10543e-15 -3 2.7 5.7856e-05 0.34837 -0.00951554 0 -1.9 1.6 3.18055e-15 7.95139e-16 3.18055e-15 0 -8.3 1.9 -1.52812 -2.76948 -0.0319708 0 -4.5 1.42109e-14 -4.59538 1.59028e-15 -3.18055e-15 7.10543e-15 -3.4 0 -4.32226 3.97569e-15 -6.36111e-15 -0.25 -2.2 0.4 3.18055e-15 7.95139e-16 3.18055e-15 -7.10543e-15 -8.3 1 -4.47038 -1.72087 -0.0022024 0 -4.65 0 -11.9075 3.03147e-15 -9.54166e-15 0 -3.3 0 -10.2586 7.95139e-16 3.18055e-15 -0.5 -2.15 -0.8 3.18055e-15 7.95139e-16 3.18055e-15 1.42109e-14 -7.75 -0.2 -9.01013 -0.623716 0.105374 0 -3.8 0 -1.80811 -3.97569e-16 3.18055e-15 0 -3.4 -1.42109e-14 -1.76425 -1.19271e-15 -6.36111e-15 -0.75 -1.75 -1.85 3.18055e-15 7.95139e-16 3.18055e-15 -7.10543e-15 -7.15 -1 -10.8217 0.149712 0.203219 -7.10543e-15 -3 0 -0.972966 0 -3.18055e-15 0 -2.35 0 -0.960133 -9.93923e-16 -3.18055e-15 -5 17 0 1.66523 -1.1476 -1.72733 -6.75 0 0 0.291713 -0.426064 -0.384607 -6.75 -2.84217e-14 0 -8.2801 4.3288 6.81523 0 -31.2558 -2 2.86914 -8.29548 2.28985 0 -24.7442 2 -3.91101 -6.96532 20.5743 0.5 -1.5 2.65 -4.7546 0.6125 -11.4346 1.42109e-14 -3.8 3.7 -0.139037 0.485521 -3.18067e-15 7.10543e-15 -3 2.7 -0.0133162 0.82319 0.0166866 0 -1.9 1.6 1.2921e-15 2.68359e-15 -3.18055e-15 7.10543e-15 -8.3 1.9 1.61625 -2.47758 0.0306277 -7.10543e-15 -4.5 -3.55271e-15 7.05165 0 6.36111e-15 -1.42109e-14 -3.4 0 6.43039 -3.18055e-15 3.18055e-15 0.25 -2.2 0.4 1.2921e-15 2.68359e-15 -3.18055e-15 0 -8.3 1 2.12795 -1.84413 0.0251446 -1.42109e-14 -4.65 0 10.7545 0 -0 0 -3.3 -1.42109e-14 9.386 1.59028e-15 3.18055e-15 0.5 -2.15 -0.8 1.2921e-15 2.68359e-15 -3.18055e-15 7.10543e-15 -7.75 -0.2 2.90656 -0.672257 0.00144068 7.10543e-15 -3.8 7.10543e-15 9.89222 0 -6.36111e-15 1.42109e-14 -3.4 0 8.71945 -1.59028e-15 3.18055e-15 0.75 -1.75 -1.85 1.2921e-15 2.68359e-15 -3.18055e-15 0 -7.15 -1 3.24043 -0.0735568 -0.0177109 7.10543e-15 -3 0 3.78274 2.38542e-15 -0 0 -2.35 7.10543e-15 3.59562 1.59028e-15 6.36111e-15 14 0 0 3.40648 -1.72366 -2.84258 0 -45.7849 -1 -0.000819535 3.84988 -0.19939 0 -41.7151 -2 -3.3313 -2.28063 -0.872538 0 -7.5 12.5 0 0 -0 0 0 4 0.39115 0.00378488 -1.92891 -14 -1.42109e-14 0 -1.87876 -3.08667 -5.79707 0 -45.7849 -1 -0.00133272 3.8501 -0.148261 0 -41.7151 -2 1.70929 -0.552813 7.25948 1.42109e-14 -7.5 12.5 4.85314e-20 -2.42657e-20 -3.18055e-15 0 0 4 -1.20724 -0.359223 -11.8268 
-99.1991 94.8849 -31.2683 0.0777384 -0.131272 114.287 1.42109e-14 7.29544 1.42109e-14 -0.0914022 -1.26573 2.41538 0 7.29544 0 0.134195 0.632632 -2.34788 0 7.29544 1.42109e-14 0.0638634 0.31704 -1.17386 0 7.29544 1.42109e-14 0.0638482 0.316968 -1.17361 0 15.5028 0 0.373726 -2.38413 -0.817763 0 9.84884 0 1.21619 -2.02713 -1.92432 5 17 0 1.2471 -1.47032 -3.63208 6.75 0 0 -0.111346 -0.274761 2.02043 6.75 -2.84217e-14 0 0.365049 -4.08784 -8.35162 0 -31.2558 -2 6.33707 1.27619 -9.29152 0 -24.7442 2 7.4891 -5.41042 -18.2227 -0.5 -1.5 2.65 5.6206 -1.63845 -2.83833 -1.42109e-14 -3.8 3.7 0.0681472 4.49683 -0.0106048 0 -3 2.7 5.78979e-05 0.348372 -0.00952238 1.42109e-14 -1.9 1.6 -8.82781e-32 7.95139e-16 6.36111e-15 7.10543e-15 -8.3 1.9 -1.5275 -2.76958 -0.0319671 0 -4.5 -1.42109e-14 -4.59652 1.19271e-15 -6.36111e-15 0 -3.4 0 -4.32326 1.19271e-15 -6.36111e-15 -0.25 -2.2 0.4 -8.82781e-32 7.95139e-16 6.36111e-15 0 -8.3 1 -4.46973 -1.72062 -0.0022024 -7.10543e-15 -4.65 -1.42109e-14 -11.9099 -4.96962e-16 -1.27222e-14 7.10543e-15 -3.3 1.42109e-14 -10.2604 -3.97569e-16 -9.54166e-15 -0.5 -2.15 -0.8 -8.82781e-32 7.95139e-16 6.36111e-15 0 -7.75 -0.2 -9.00943 -0.622735 0.105438 -7.10543e-15 -3.8 0 -1.80912 1.19271e-15 3.18055e-15 0 -3.4 0 -1.76521 -5.96354e-16 -6.36111e-15 -0.75 -1.75 -1.85 -8.82781e-32 7.95139e-16 6.36111e-15 0 -7.15 -1 -10.821 0.15104 0.20331 -1.42109e-14 -3 0 -0.97525 -1.98785e-16 -3.18055e-15 0 -2.35 1.42109e-14 -0.962358 3.97569e-16 1.27222e-14 -5 17 0 1.66552 -1.14828 -1.72627 -6.75 -2.84217e-14 -1.42109e-14 0.291526 -0.4255 -0.384339 -6.75 2.84217e-14 1.42109e-14 -8.28055 4.33042 6.81423 -7.10543e-15 -31.2558 -2 2.87231 -8.30016 2.29661 0 -24.7442 2 -3.9064 -6.96783 20.5741 0.5 -1.5 2.65 -4.75422 0.613709 -11.433 7.10543e-15 -3.8 3.7 -0.13904 0.485523 6.36134e-15 0 -3 2.7 -0.0133128 0.82319 0.0166935 -7.10543e-15 -1.9 1.6 -1.49089e-15 1.2921e-15 -0 0 -8.3 1.9 1.61382 -2.47967 0.0306046 -7.10543e-15 -4.5 3.55271e-15 7.04802 -7.95139e-16 -9.54166e-15 0 -3.4 7.10543e-15 6.42737 -4.77083e-15 -6.36111e-15 0.25 -2.2 0.4 -1.49089e-15 1.2921e-15 -0 -7.10543e-15 -8.3 1 2.12627 -1.84562 0.0251489 7.10543e-15 -4.65 0 10.7527 -2.38542e-15 -3.18055e-15 0 -3.3 -7.10543e-15 9.38463 -1.59028e-15 -0 0.5 -2.15 -0.8 -1.49089e-15 1.2921e-15 -0 1.42109e-14 -7.75 -0.2 2.90625 -0.672618 0.00144068 0 -3.8 7.10543e-15 9.89238 -7.95139e-16 -3.18055e-15 -1.42109e-14 -3.4 7.10543e-15 8.71957 -4.77083e-15 -3.18055e-15 0.75 -1.75 -1.85 -1.49089e-15 1.2921e-15 -0 -2.13163e-14 -7.15 -1 3.24087 -0.0733504 -0.0177302 -7.10543e-15 -3 0 3.78383 3.18055e-15 3.18055e-15 1.42109e-14 -2.35 0 3.5966 1.59028e-15 6.36111e-15 14 0 1.42109e-14 3.40646 -1.7254 -2.84427 1.42109e-14 -45.7849 -1 -0.000822013 3.8501 -0.200391 0 -41.7151 -2 -3.3314 -2.27927 -0.869475 -1.42109e-14 -7.5 12.5 -4.85314e-20 -2.42657e-20 -3.18055e-15 0 0 4 0.388223 0.00378488 -1.92865 -14 1.42109e-14 0 -1.87857 -3.08827 -5.79592 0 -45.7849 -1 -0.00133071 3.84987 -0.148084 7.10543e-15 -41.7151 -2 1.70893 -0.552184 7.25792 0 -7.5 12.5 -3.4882e-20 1.09196e-19 -6.36111e-15 1.42109e-14 0 4 -1.20726 -0.358025 -11.8268 
-99.2013 94.8849 -31.2666 0.0777716 -0.131102 114.287 1.42109e-14 7.29544 0 -0.0912766 -1.26892 2.41481 0 7.29544 0 0.134247 0.634282 -2.34822 0 7.29544 0 0.0638787 0.317724 -1.1741 0 7.29544 -1.42109e-14 0.0638635 0.317653 -1.17385 0 15.5028 0 0.373329 -2.38654 -0.817823 0 9.84884 -1.42109e-14 1.21406 -2.01808 -1.92447 5 17 -1.42109e-14 1.24726 -1.47165 -3.62961 6.75 2.84217e-14 0 -0.109723 -0.274952 2.01977 6.75 0 -2.84217e-14 0.36497 -4.08645 -8.33992 0 -31.2558 -2 6.33512 1.27327 -9.29364 0 -24.7442 2 7.49537 -5.40843 -18.2219 -0.5 -1.5 2.65 5.62036 -1.64101 -2.84144 0 -3.8 3.7 0.0681476 4.4992 -0.0106048 0 -3 2.7 5.78979e-05 0.348372 -0.00952238 7.10543e-15 -1.9 1.6 -3.53113e-31 3.18055e-15 6.36111e-15 0 -8.3 1.9 -1.52659 -2.7698 -0.0319551 0 -4.5 -1.42109e-14 -4.59901 1.59028e-15 -0 0 -3.4 0 -4.32448 -1.19271e-15 -0 -0.25 -2.2 0.4 -3.53113e-31 3.18055e-15 6.36111e-15 0 -8.3 1 -4.47006 -1.72091 -0.0022024 0 -4.65 1.42109e-14 -11.9131 -1.04362e-15 -0 -7.10543e-15 -3.3 -1.42109e-14 -10.2622 -1.59028e-15 -0 -0.5 -2.15 -0.8 -3.53113e-31 3.18055e-15 6.36111e-15 -7.10543e-15 -7.75 -0.2 -9.01012 -0.62283 0.105316 0 -3.8 0 -1.80875 -7.95139e-16 -3.18055e-15 0 -3.4 1.42109e-14 -1.76525 1.98785e-15 3.18055e-15 -0.75 -1.75 -1.85 -3.53113e-31 3.18055e-15 6.36111e-15 0 -7.15 -1 -10.8218 0.151857 0.203153 -7.10543e-15 -3 -2.84217e-14 -0.974576 -3.97569e-16 -0 0 -2.35 0 -0.961885 -3.97569e-16 -0 -5 17 -1.42109e-14 1.66547 -1.1493 -1.72469 -6.75 -2.84217e-14 0 0.291545 -0.424799 -0.384326 -6.75 2.84217e-14 0 -8.28156 4.33042 6.81075 0 -31.2558 -2 2.8762 -8.29906 2.30466 -7.10543e-15 -24.7442 2 -3.90062 -6.97086 20.5764 0.5 -1.5 2.65 -4.7553 0.614919 -11.4331 0 -3.8 3.7 -0.13904 0.485523 -3.18067e-15 0 -3 2.7 -0.0133128 0.82319 0.0166935 0 -1.9 1.6 1.19271e-15 -1.68967e-15 3.18055e-15 0 -8.3 1.9 1.61049 -2.48138 0.0305978 7.10543e-15 -4.5 0 7.04906 4.77083e-15 -3.18055e-15 0 -3.4 -7.10543e-15 6.42738 0 -6.36111e-15 0.25 -2.2 0.4 1.19271e-15 -1.68967e-15 3.18055e-15 -7.10543e-15 -8.3 1 2.12344 -1.84605 0.0251489 0 -4.65 0 10.7525 1.59028e-15 -6.36111e-15 0 -3.3 -7.10543e-15 9.38478 -3.18055e-15 -9.54166e-15 0.5 -2.15 -0.8 1.19271e-15 -1.68967e-15 3.18055e-15 7.10543e-15 -7.75 -0.2 2.90429 -0.672345 0.00144068 0 -3.8 -7.10543e-15 9.89263 1.59028e-15 -9.54166e-15 -1.42109e-14 -3.4 -7.10543e-15 8.71947 -1.59028e-15 -3.18055e-15 0.75 -1.75 -1.85 1.19271e-15 -1.68967e-15 3.18055e-15 0 -7.15 -1 3.24027 -0.0724181 -0.0176957 7.10543e-15 -3 7.10543e-15 3.78474 1.59028e-15 -1.90833e-14 0 -2.35 0 3.59782 1.59028e-15 -3.18055e-15 14 1.42109e-14 0 3.40656 -1.72712 -2.8466 0 -45.7849 -1 -0.00073741 3.8501 -0.201651 0 -41.7151 -2 -3.3317 -2.27756 -0.865823 0 -7.5 12.5 -2.42657e-20 -9.70628e-20 -0 0 1.38778e-17 4 0.385764 0.00378488 -1.92865 -14 0 0 -1.87818 -3.09013 -5.79366 -7.10543e-15 -45.7849 -1 -0.00134217 3.84987 -0.147913 0 -41.7151 -2 1.70835 -0.550517 7.25648 0 -7.5 12.5 9.70628e-20 -5.45978e-20 3.18055e-15 0 0 4 -1.20789 -0.357996 -11.8268 
